<svg width="124" height="26" viewBox="0 0 124 26" fill="none" xmlns="http://www.w3.org/2000/svg">
<path d="M25.8789 18V7.09091H28.1853V16.0984H32.8622V18H25.8789ZM38.0437 18.1598C37.2163 18.1598 36.5008 17.984 35.8971 17.6325C35.2969 17.2773 34.8335 16.7837 34.5068 16.1516C34.1801 15.516 34.0168 14.7791 34.0168 13.9411C34.0168 13.0959 34.1801 12.3572 34.5068 11.7251C34.8335 11.0895 35.2969 10.5959 35.8971 10.2443C36.5008 9.8892 37.2163 9.71165 38.0437 9.71165C38.8712 9.71165 39.5849 9.8892 40.1851 10.2443C40.7888 10.5959 41.254 11.0895 41.5807 11.7251C41.9074 12.3572 42.0707 13.0959 42.0707 13.9411C42.0707 14.7791 41.9074 15.516 41.5807 16.1516C41.254 16.7837 40.7888 17.2773 40.1851 17.6325C39.5849 17.984 38.8712 18.1598 38.0437 18.1598ZM38.0544 16.402C38.4308 16.402 38.7451 16.2955 38.9972 16.0824C39.2494 15.8658 39.4393 15.571 39.5672 15.1982C39.6986 14.8253 39.7643 14.4009 39.7643 13.9251C39.7643 13.4492 39.6986 13.0249 39.5672 12.652C39.4393 12.2791 39.2494 11.9844 38.9972 11.7678C38.7451 11.5511 38.4308 11.4428 38.0544 11.4428C37.6744 11.4428 37.3548 11.5511 37.0956 11.7678C36.8399 11.9844 36.6464 12.2791 36.515 12.652C36.3871 13.0249 36.3232 13.4492 36.3232 13.9251C36.3232 14.4009 36.3871 14.8253 36.515 15.1982C36.6464 15.571 36.8399 15.8658 37.0956 16.0824C37.3548 16.2955 37.6744 16.402 38.0544 16.402ZM47.2323 21.2386C46.4972 21.2386 45.8669 21.1374 45.3413 20.935C44.8193 20.7362 44.4038 20.4645 44.0949 20.12C43.7859 19.7756 43.5853 19.3885 43.493 18.9588L45.5917 18.6765C45.6556 18.8398 45.7568 18.9925 45.8953 19.1346C46.0338 19.2766 46.2167 19.3903 46.444 19.4755C46.6748 19.5643 46.9553 19.6087 47.2856 19.6087C47.7792 19.6087 48.1858 19.4879 48.5054 19.2464C48.8285 19.0085 48.9901 18.609 48.9901 18.0479V16.5511H48.8942C48.7948 16.7784 48.6457 16.9933 48.4468 17.1957C48.2479 17.3981 47.9922 17.5632 47.6797 17.6911C47.3672 17.8189 46.9944 17.8828 46.5611 17.8828C45.9468 17.8828 45.3875 17.7408 44.8832 17.4567C44.3825 17.169 43.983 16.7305 43.6847 16.141C43.39 15.5479 43.2426 14.7987 43.2426 13.8931C43.2426 12.9663 43.3935 12.1921 43.6954 11.5707C43.9972 10.9492 44.3985 10.484 44.8992 10.1751C45.4035 9.86612 45.9557 9.71165 46.5558 9.71165C47.0139 9.71165 47.3974 9.78977 47.7064 9.94602C48.0153 10.0987 48.2639 10.2905 48.4521 10.5213C48.6439 10.7486 48.7913 10.9723 48.8942 11.1925H48.9795V9.81818H51.2327V18.0799C51.2327 18.7759 51.0622 19.3583 50.7213 19.8271C50.3804 20.2958 49.9081 20.6474 49.3044 20.8817C48.7043 21.1197 48.0136 21.2386 47.2323 21.2386ZM47.2802 16.1783C47.646 16.1783 47.955 16.0877 48.2071 15.9066C48.4628 15.7219 48.6581 15.4592 48.793 15.1183C48.9315 14.7738 49.0008 14.3619 49.0008 13.8825C49.0008 13.4031 48.9333 12.9876 48.7984 12.636C48.6634 12.2809 48.4681 12.0057 48.2124 11.8104C47.9567 11.6151 47.646 11.5174 47.2802 11.5174C46.9074 11.5174 46.5931 11.6186 46.3374 11.821C46.0817 12.0199 45.8882 12.2969 45.7568 12.652C45.6254 13.0071 45.5597 13.4173 45.5597 13.8825C45.5597 14.3548 45.6254 14.7631 45.7568 15.1076C45.8918 15.4485 46.0853 15.7131 46.3374 15.9013C46.5931 16.0859 46.9074 16.1783 47.2802 16.1783ZM56.7351 18.1598C55.9077 18.1598 55.1922 17.984 54.5885 17.6325C53.9883 17.2773 53.5249 16.7837 53.1982 16.1516C52.8715 15.516 52.7082 14.7791 52.7082 13.9411C52.7082 13.0959 52.8715 12.3572 53.1982 11.7251C53.5249 11.0895 53.9883 10.5959 54.5885 10.2443C55.1922 9.8892 55.9077 9.71165 56.7351 9.71165C57.5626 9.71165 58.2763 9.8892 58.8765 10.2443C59.4802 10.5959 59.9454 11.0895 60.2721 11.7251C60.5988 12.3572 60.7621 13.0959 60.7621 13.9411C60.7621 14.7791 60.5988 15.516 60.2721 16.1516C59.9454 16.7837 59.4802 17.2773 58.8765 17.6325C58.2763 17.984 57.5626 18.1598 56.7351 18.1598ZM56.7458 16.402C57.1222 16.402 57.4365 16.2955 57.6886 16.0824C57.9408 15.8658 58.1307 15.571 58.2586 15.1982C58.39 14.8253 58.4557 14.4009 58.4557 13.9251C58.4557 13.4492 58.39 13.0249 58.2586 12.652C58.1307 12.2791 57.9408 11.9844 57.6886 11.7678C57.4365 11.5511 57.1222 11.4428 56.7458 11.4428C56.3658 11.4428 56.0462 11.5511 55.787 11.7678C55.5313 11.9844 55.3378 12.2791 55.2064 12.652C55.0785 13.0249 55.0146 13.4492 55.0146 13.9251C55.0146 14.4009 55.0785 14.8253 55.2064 15.1982C55.3378 15.571 55.5313 15.8658 55.787 16.0824C56.0462 16.2955 56.3658 16.402 56.7458 16.402ZM71.6699 10.2283C71.6273 9.79865 71.4444 9.46484 71.1212 9.22692C70.7981 8.98899 70.3595 8.87003 69.8055 8.87003C69.4291 8.87003 69.1113 8.9233 68.8521 9.02983C68.5928 9.13281 68.394 9.27663 68.2555 9.46129C68.1205 9.64595 68.0531 9.85547 68.0531 10.0898C68.046 10.2852 68.0868 10.4556 68.1756 10.6012C68.2679 10.7468 68.394 10.8729 68.5538 10.9794C68.7136 11.0824 68.8982 11.1729 69.1077 11.2511C69.3173 11.3256 69.541 11.3896 69.7789 11.4428L70.759 11.6772C71.2349 11.7837 71.6717 11.9258 72.0694 12.1033C72.4671 12.2809 72.8116 12.4993 73.1028 12.7585C73.394 13.0178 73.6195 13.3232 73.7793 13.6747C73.9426 14.0263 74.0261 14.4293 74.0296 14.8839C74.0261 15.5515 73.8556 16.1303 73.5183 16.6204C73.1845 17.1069 72.7015 17.4851 72.0694 17.755C71.4408 18.0213 70.6827 18.1545 69.7949 18.1545C68.9142 18.1545 68.1472 18.0195 67.4938 17.7496C66.8439 17.4798 66.3361 17.0803 65.9703 16.5511C65.6081 16.0185 65.4181 15.3597 65.4004 14.5749H67.6323C67.6571 14.9407 67.7619 15.2461 67.9465 15.4911C68.1347 15.7326 68.3851 15.9155 68.6976 16.0398C69.0136 16.1605 69.3705 16.2209 69.7683 16.2209C70.1589 16.2209 70.498 16.1641 70.7857 16.0504C71.0769 15.9368 71.3024 15.7788 71.4622 15.5763C71.622 15.3739 71.7019 15.1413 71.7019 14.8786C71.7019 14.6335 71.6291 14.4276 71.4835 14.2607C71.3414 14.0937 71.1319 13.9517 70.8549 13.8345C70.5815 13.7173 70.2459 13.6108 69.8482 13.5149L68.6603 13.2166C67.7406 12.9929 67.0144 12.6431 66.4817 12.1673C65.949 11.6914 65.6845 11.0504 65.688 10.2443C65.6845 9.58381 65.8602 9.00675 66.2153 8.51314C66.574 8.01953 67.0658 7.63423 67.6908 7.35724C68.3158 7.08026 69.0261 6.94176 69.8215 6.94176C70.6312 6.94176 71.3379 7.08026 71.9416 7.35724C72.5488 7.63423 73.0211 8.01953 73.3585 8.51314C73.6958 9.00675 73.8698 9.57848 73.8805 10.2283H71.6699ZM75.5384 18V9.81818H77.8076V18H75.5384ZM76.6783 8.76349C76.341 8.76349 76.0516 8.65163 75.8101 8.42791C75.5721 8.20064 75.4532 7.92898 75.4532 7.61293C75.4532 7.30043 75.5721 7.03232 75.8101 6.80859C76.0516 6.58132 76.341 6.46768 76.6783 6.46768C77.0157 6.46768 77.3033 6.58132 77.5413 6.80859C77.7827 7.03232 77.9035 7.30043 77.9035 7.61293C77.9035 7.92898 77.7827 8.20064 77.5413 8.42791C77.3033 8.65163 77.0157 8.76349 76.6783 8.76349ZM86.4329 12.1513L84.3554 12.2791C84.3199 12.1016 84.2436 11.9418 84.1264 11.7997C84.0092 11.6541 83.8547 11.5387 83.663 11.4535C83.4748 11.3647 83.2493 11.3203 82.9865 11.3203C82.6349 11.3203 82.3384 11.3949 82.0969 11.544C81.8554 11.6896 81.7347 11.8849 81.7347 12.13C81.7347 12.3253 81.8128 12.4904 81.9691 12.6254C82.1253 12.7603 82.3934 12.8686 82.7734 12.9503L84.2542 13.2486C85.0497 13.4119 85.6427 13.6747 86.0334 14.0369C86.424 14.3991 86.6193 14.875 86.6193 15.4645C86.6193 16.0007 86.4613 16.4712 86.1452 16.8761C85.8327 17.2809 85.403 17.5969 84.8562 17.8242C84.3128 18.0479 83.6861 18.1598 82.9758 18.1598C81.8927 18.1598 81.0298 17.9343 80.387 17.4833C79.7478 17.0288 79.3732 16.4109 79.2631 15.6296L81.495 15.5124C81.5625 15.8427 81.7258 16.0948 81.9851 16.2688C82.2443 16.4393 82.5763 16.5245 82.9812 16.5245C83.3789 16.5245 83.6985 16.4482 83.94 16.2955C84.185 16.1392 84.3093 15.9386 84.3128 15.6935C84.3093 15.4876 84.2223 15.3189 84.0518 15.1875C83.8814 15.0526 83.6186 14.9496 83.2635 14.8786L81.8466 14.5962C81.0476 14.4364 80.4527 14.1594 80.0621 13.7653C79.675 13.3711 79.4815 12.8686 79.4815 12.2578C79.4815 11.7322 79.6236 11.2795 79.9076 10.8995C80.1953 10.5195 80.5983 10.2266 81.1168 10.0206C81.6388 9.81463 82.2496 9.71165 82.9492 9.71165C83.9826 9.71165 84.7958 9.93004 85.3888 10.3668C85.9854 10.8036 86.3334 11.3984 86.4329 12.1513ZM92.4001 9.81818V11.5227H87.4729V9.81818H92.4001ZM88.5915 7.85795H90.8607V15.4858C90.8607 15.6953 90.8926 15.8587 90.9566 15.9759C91.0205 16.0895 91.1093 16.1694 91.2229 16.2156C91.3401 16.2617 91.475 16.2848 91.6277 16.2848C91.7343 16.2848 91.8408 16.2759 91.9473 16.2582C92.0539 16.2369 92.1355 16.2209 92.1924 16.2102L92.5492 17.8988C92.4356 17.9343 92.2758 17.9751 92.0698 18.0213C91.8639 18.071 91.6135 18.1012 91.3188 18.1119C90.7719 18.1332 90.2925 18.0604 89.8806 17.8935C89.4722 17.7266 89.1544 17.4673 88.9271 17.1158C88.6998 16.7642 88.588 16.3203 88.5915 15.7841V7.85795ZM97.5191 18.1598C96.6774 18.1598 95.953 17.9893 95.3458 17.6484C94.7421 17.304 94.2769 16.8175 93.9502 16.1889C93.6235 15.5568 93.4601 14.8093 93.4601 13.9464C93.4601 13.1048 93.6235 12.3661 93.9502 11.7305C94.2769 11.0948 94.7367 10.5994 95.3298 10.2443C95.9264 9.8892 96.6259 9.71165 97.4285 9.71165C97.9683 9.71165 98.4708 9.79865 98.936 9.97266C99.4047 10.1431 99.8131 10.4006 100.161 10.745C100.513 11.0895 100.786 11.5227 100.981 12.0447C101.177 12.5632 101.274 13.1705 101.274 13.8665V14.4897H94.3657V13.0835H99.1384C99.1384 12.7567 99.0674 12.4673 98.9253 12.2152C98.7833 11.9631 98.5862 11.766 98.334 11.6239C98.0855 11.4783 97.796 11.4055 97.4658 11.4055C97.1213 11.4055 96.8159 11.4854 96.5496 11.6452C96.2868 11.8015 96.0808 12.0128 95.9317 12.2791C95.7826 12.5419 95.7062 12.8349 95.7027 13.158V14.495C95.7027 14.8999 95.7772 15.2496 95.9264 15.5444C96.0791 15.8391 96.2939 16.0664 96.5709 16.2262C96.8479 16.386 97.1764 16.4659 97.5563 16.4659C97.8085 16.4659 98.0393 16.4304 98.2488 16.3594C98.4583 16.2884 98.6377 16.1818 98.7868 16.0398C98.936 15.8977 99.0496 15.7237 99.1277 15.5178L101.226 15.6562C101.12 16.1605 100.902 16.6009 100.571 16.9773C100.245 17.3501 99.822 17.6413 99.3035 17.8509C98.7886 18.0568 98.1938 18.1598 97.5191 18.1598ZM102.755 18V9.81818H104.918V11.2617H105.014C105.184 10.7823 105.468 10.4041 105.866 10.1271C106.264 9.85014 106.74 9.71165 107.294 9.71165C107.855 9.71165 108.332 9.85192 108.726 10.1325C109.121 10.4094 109.383 10.7859 109.515 11.2617H109.6C109.767 10.793 110.069 10.4183 110.506 10.1378C110.946 9.85369 111.466 9.71165 112.066 9.71165C112.83 9.71165 113.449 9.9549 113.925 10.4414C114.405 10.9244 114.644 11.6097 114.644 12.4975V18H112.381V12.945C112.381 12.4904 112.26 12.1495 112.018 11.9222C111.777 11.695 111.475 11.5813 111.113 11.5813C110.701 11.5813 110.38 11.7127 110.149 11.9755C109.918 12.2347 109.802 12.5774 109.802 13.0036V18H107.603V12.897C107.603 12.4957 107.487 12.1761 107.256 11.9382C107.029 11.7003 106.729 11.5813 106.356 11.5813C106.104 11.5813 105.877 11.6452 105.674 11.7731C105.475 11.8974 105.317 12.0732 105.2 12.3004C105.083 12.5241 105.024 12.7869 105.024 13.0888V18H102.755ZM118.77 18.1545C118.248 18.1545 117.783 18.0639 117.374 17.8828C116.966 17.6982 116.643 17.4265 116.405 17.0678C116.171 16.7056 116.053 16.2546 116.053 15.7148C116.053 15.2603 116.137 14.8786 116.304 14.5696C116.471 14.2607 116.698 14.0121 116.986 13.8239C117.273 13.6357 117.6 13.4936 117.966 13.3977C118.335 13.3018 118.722 13.2344 119.127 13.1953C119.603 13.1456 119.986 13.0994 120.277 13.0568C120.569 13.0107 120.78 12.9432 120.911 12.8544C121.043 12.7656 121.108 12.6342 121.108 12.4602V12.4283C121.108 12.0909 121.002 11.8299 120.789 11.6452C120.579 11.4606 120.281 11.3683 119.894 11.3683C119.486 11.3683 119.161 11.4588 118.919 11.6399C118.678 11.8175 118.518 12.0412 118.44 12.3111L116.341 12.1406C116.448 11.6435 116.657 11.2138 116.97 10.8516C117.282 10.4858 117.685 10.2053 118.179 10.0099C118.676 9.81108 119.251 9.71165 119.905 9.71165C120.359 9.71165 120.794 9.76491 121.21 9.87145C121.629 9.97798 122 10.1431 122.323 10.3668C122.65 10.5906 122.907 10.8782 123.095 11.2298C123.283 11.5778 123.378 11.995 123.378 12.4815V18H121.226V16.8654H121.162C121.03 17.1211 120.854 17.3466 120.634 17.5419C120.414 17.7337 120.15 17.8846 119.841 17.9947C119.532 18.1012 119.175 18.1545 118.77 18.1545ZM119.42 16.5884C119.754 16.5884 120.048 16.5227 120.304 16.3913C120.56 16.2564 120.76 16.0753 120.906 15.848C121.052 15.6207 121.124 15.3633 121.124 15.0756V14.2074C121.053 14.2536 120.956 14.2962 120.831 14.3352C120.711 14.3707 120.574 14.4045 120.421 14.4364C120.269 14.4648 120.116 14.4915 119.963 14.5163C119.81 14.5376 119.672 14.5572 119.548 14.5749C119.281 14.614 119.049 14.6761 118.85 14.7614C118.651 14.8466 118.497 14.962 118.386 15.1076C118.276 15.2496 118.221 15.4272 118.221 15.6403C118.221 15.9492 118.333 16.1854 118.557 16.3487C118.784 16.5085 119.072 16.5884 119.42 16.5884Z" fill="black"/>
<path d="M6.71725 12.6784C6.71725 11.3625 6.71463 10.0467 6.7185 8.73084C6.7201 8.18349 6.9068 7.99631 7.44895 7.99137C7.96238 7.9867 8.47607 7.98594 8.98937 7.99618C9.43457 8.00507 9.63099 8.20455 9.63672 8.64894C9.64542 9.32283 9.6531 9.99701 9.64166 10.6707C9.63753 10.9132 9.67574 11.0166 9.96034 11.0347C11.4279 11.1284 12.7838 11.555 13.9964 12.4187C16.7212 14.3594 16.9195 18.8443 13.9061 21.033C12.7418 21.8787 11.4177 22.2883 10.018 22.4912C9.72933 22.5331 9.59924 22.597 9.61929 22.9309C9.65574 23.5385 9.63256 24.1498 9.63052 24.7596C9.6289 25.2403 9.464 25.4219 8.97947 25.434C8.42357 25.4479 7.86686 25.4449 7.31078 25.4341C6.88301 25.4258 6.71043 25.249 6.70525 24.82C6.69739 24.1675 6.69616 23.5147 6.70726 22.8624C6.71074 22.6583 6.67138 22.5792 6.44064 22.544C4.16473 22.1972 2.15833 21.3117 0.61414 19.5428C-0.207805 18.6012 -0.202839 18.3245 0.617825 17.3877C0.779621 17.203 0.946018 17.0197 1.12911 16.8569C1.43729 16.5828 1.69907 16.583 2.0153 16.8535C2.32397 17.1175 2.61392 17.4034 2.92265 17.6674C4.71171 19.197 6.81755 19.6728 9.11134 19.5176C9.96086 19.4601 10.7861 19.2979 11.5458 18.898C12.4347 18.43 12.975 17.7228 12.9765 16.6805C12.9777 15.8318 12.5707 15.2138 11.8509 14.7975C11.2368 14.4423 10.5603 14.3033 9.85771 14.2614C9.66432 14.2499 9.62786 14.3237 9.63052 14.4982C9.64132 15.2042 9.64126 15.9103 9.64022 16.6164C9.63943 17.1338 9.4496 17.3398 8.9307 17.3543C8.41764 17.3686 7.90366 17.365 7.39041 17.3544C6.90978 17.3444 6.7161 17.1408 6.71508 16.658C6.71228 15.3315 6.71411 14.0049 6.71411 12.6784C6.71516 12.6784 6.7162 12.6784 6.71725 12.6784Z" fill="#38C793"/>
<path d="M8.15912 0.0102163C8.45854 0.0102163 8.75879 -0.00402721 9.05714 0.0137701C9.44346 0.0367943 9.61612 0.22117 9.62172 0.608086C9.63068 1.22838 9.6391 1.84922 9.62143 2.46907C9.61453 2.71115 9.7043 2.76489 9.9243 2.79813C12.2049 3.14289 14.1885 4.07721 15.7526 5.80711C16.4289 6.55509 16.4207 6.78278 15.7956 7.57137C15.6027 7.81473 15.4052 8.05308 15.1642 8.25183C14.787 8.56303 14.5207 8.57205 14.1325 8.2633C13.681 7.90419 13.2531 7.51482 12.7635 7.20492C10.5414 5.79859 8.14825 5.50827 5.62547 6.13541C5.04004 6.28092 4.51576 6.57446 4.08162 7.00873C3.00521 8.08541 3.17118 9.63715 4.45288 10.4552C4.57866 10.5355 4.70427 10.641 4.84361 10.6706C5.29986 10.7675 5.34481 11.0611 5.33449 11.4646C5.31152 12.3618 5.29641 13.2613 5.38085 14.1579C5.39337 14.2907 5.40947 14.4117 5.19248 14.3575C3.03793 13.8194 1.33259 12.7211 0.581552 10.5228C-0.189405 8.26618 0.39093 5.1825 3.60551 3.62248C4.48829 3.19406 5.42431 2.94453 6.38866 2.80255C6.63992 2.76554 6.6953 2.66999 6.68918 2.4369C6.67397 1.8597 6.67964 1.28172 6.68743 0.704208C6.69428 0.196866 6.89007 0.0063212 7.389 0.00127731C7.64569 -0.00130997 7.90243 0.000833868 8.15915 0.000833868C8.15909 0.00394383 8.15909 0.00708016 8.15912 0.0102163Z" fill="#38C793"/>
</svg>
